<mxfile host="65bd71144e">
    <diagram id="InhZgXvjEY7na0MZGyS1" name="Page-1">
        <mxGraphModel dx="482" dy="454" grid="1" gridSize="10" guides="1" tooltips="1" connect="1" arrows="1" fold="1" page="1" pageScale="1" pageWidth="827" pageHeight="1169" math="0" shadow="0">
            <root>
                <mxCell id="0"/>
                <mxCell id="1" parent="0"/>
                <mxCell id="4" value="" style="edgeStyle=none;html=1;exitX=0.5;exitY=1;exitDx=0;exitDy=0;" edge="1" parent="1" source="2" target="3">
                    <mxGeometry relative="1" as="geometry">
                        <mxPoint x="160" y="90" as="sourcePoint"/>
                    </mxGeometry>
                </mxCell>
                <mxCell id="2" value="Start" style="ellipse;whiteSpace=wrap;html=1;aspect=fixed;" vertex="1" parent="1">
                    <mxGeometry x="120.01" y="10" width="80" height="80" as="geometry"/>
                </mxCell>
                <mxCell id="6" style="edgeStyle=none;html=1;entryX=0.5;entryY=0;entryDx=0;entryDy=0;" edge="1" parent="1" source="3" target="5">
                    <mxGeometry relative="1" as="geometry"/>
                </mxCell>
                <mxCell id="3" value="let day = prompt(&quot; &quot;)" style="shape=parallelogram;perimeter=parallelogramPerimeter;whiteSpace=wrap;html=1;fixedSize=1;" vertex="1" parent="1">
                    <mxGeometry x="53.34" y="130" width="213.33" height="80" as="geometry"/>
                </mxCell>
                <mxCell id="10" value="" style="edgeStyle=none;html=1;" edge="1" parent="1" source="5" target="9">
                    <mxGeometry relative="1" as="geometry"/>
                </mxCell>
                <mxCell id="5" value="let month = prompt(&quot; &quot;)" style="shape=parallelogram;perimeter=parallelogramPerimeter;whiteSpace=wrap;html=1;fixedSize=1;" vertex="1" parent="1">
                    <mxGeometry x="53.34" y="260" width="213.33" height="80" as="geometry"/>
                </mxCell>
                <mxCell id="12" value="Yes" style="edgeStyle=none;html=1;" edge="1" parent="1" source="9" target="11">
                    <mxGeometry relative="1" as="geometry"/>
                </mxCell>
                <mxCell id="14" value="" style="edgeStyle=none;html=1;entryX=0.499;entryY=0.008;entryDx=0;entryDy=0;entryPerimeter=0;" edge="1" parent="1" source="9" target="16">
                    <mxGeometry relative="1" as="geometry">
                        <mxPoint x="160" y="790" as="targetPoint"/>
                    </mxGeometry>
                </mxCell>
                <mxCell id="15" value="No" style="edgeLabel;html=1;align=center;verticalAlign=middle;resizable=0;points=[];" vertex="1" connectable="0" parent="14">
                    <mxGeometry x="-0.3479" y="-1" relative="1" as="geometry">
                        <mxPoint x="1" as="offset"/>
                    </mxGeometry>
                </mxCell>
                <mxCell id="9" value="( month == 12 &amp;amp;&amp;amp; day &amp;gt;= 22 &amp;amp;&amp;amp; day &amp;lt;= 31 )&amp;nbsp;&lt;br&gt;|| ( month == 1 &amp;amp;&amp;amp; day &amp;lt;= 19 &amp;amp;&amp;amp; day &amp;gt;0)" style="rhombus;whiteSpace=wrap;html=1;" vertex="1" parent="1">
                    <mxGeometry x="15" y="390" width="290" height="240" as="geometry"/>
                </mxCell>
                <mxCell id="79" style="edgeStyle=none;html=1;fontColor=#fff;" edge="1" parent="1" source="11" target="78">
                    <mxGeometry relative="1" as="geometry">
                        <Array as="points">
                            <mxPoint x="730" y="510"/>
                        </Array>
                    </mxGeometry>
                </mxCell>
                <mxCell id="11" value="&lt;font color=&quot;#ce9178&quot;&gt;Horoscope : Capricorn&amp;nbsp;&lt;/font&gt;" style="shape=document;whiteSpace=wrap;html=1;boundedLbl=1;" vertex="1" parent="1">
                    <mxGeometry x="450" y="460" width="175" height="100" as="geometry"/>
                </mxCell>
                <mxCell id="16" value="( month == 1 &amp;amp;&amp;amp; day &amp;gt;= 20 &amp;amp;&amp;amp; day &amp;lt;= 31 )&amp;nbsp;&lt;br&gt;|| ( month == 2 &amp;amp;&amp;amp; day &amp;lt;= 18 &amp;amp;&amp;amp; day &amp;gt;0)" style="rhombus;whiteSpace=wrap;html=1;" vertex="1" parent="1">
                    <mxGeometry x="15.01" y="690" width="290" height="240" as="geometry"/>
                </mxCell>
                <mxCell id="17" value="Yes" style="edgeStyle=none;html=1;exitX=1;exitY=0.5;exitDx=0;exitDy=0;" edge="1" parent="1" target="18" source="16">
                    <mxGeometry relative="1" as="geometry">
                        <mxPoint x="310" y="810" as="sourcePoint"/>
                    </mxGeometry>
                </mxCell>
                <mxCell id="80" style="edgeStyle=none;html=1;fontColor=#fff;entryX=0.5;entryY=0;entryDx=0;entryDy=0;" edge="1" parent="1" source="18" target="78">
                    <mxGeometry relative="1" as="geometry">
                        <mxPoint x="730" y="810" as="targetPoint"/>
                        <Array as="points">
                            <mxPoint x="730" y="810"/>
                        </Array>
                    </mxGeometry>
                </mxCell>
                <mxCell id="18" value="&lt;font color=&quot;#ce9178&quot;&gt;Horoscope : Aquarius&amp;nbsp;&lt;/font&gt;" style="shape=document;whiteSpace=wrap;html=1;boundedLbl=1;" vertex="1" parent="1">
                    <mxGeometry x="450" y="760" width="175" height="100" as="geometry"/>
                </mxCell>
                <mxCell id="21" value="" style="edgeStyle=none;html=1;entryX=0.499;entryY=0.008;entryDx=0;entryDy=0;entryPerimeter=0;exitX=0.499;exitY=1.008;exitDx=0;exitDy=0;exitPerimeter=0;" edge="1" parent="1" target="23" source="16">
                    <mxGeometry relative="1" as="geometry">
                        <mxPoint x="159.80895915678525" y="940.0018972332016" as="sourcePoint"/>
                        <mxPoint x="160" y="1100.16" as="targetPoint"/>
                    </mxGeometry>
                </mxCell>
                <mxCell id="22" value="No" style="edgeLabel;html=1;align=center;verticalAlign=middle;resizable=0;points=[];" vertex="1" connectable="0" parent="21">
                    <mxGeometry x="-0.3479" y="-1" relative="1" as="geometry">
                        <mxPoint x="1" as="offset"/>
                    </mxGeometry>
                </mxCell>
                <mxCell id="23" value="( month == 2 &amp;amp;&amp;amp; day &amp;gt;= 19 &amp;amp;&amp;amp; day &amp;lt;= 29 )&amp;nbsp;&lt;br&gt;|| ( month == 3 &amp;amp;&amp;amp; day &amp;lt;= 20 &amp;amp;&amp;amp; day &amp;gt;0)" style="rhombus;whiteSpace=wrap;html=1;" vertex="1" parent="1">
                    <mxGeometry x="15" y="1000.1600000000001" width="290" height="240" as="geometry"/>
                </mxCell>
                <mxCell id="24" value="Yes" style="edgeStyle=none;html=1;exitX=1;exitY=0.5;exitDx=0;exitDy=0;" edge="1" parent="1" source="23" target="25">
                    <mxGeometry relative="1" as="geometry">
                        <mxPoint x="310" y="1120.16" as="sourcePoint"/>
                    </mxGeometry>
                </mxCell>
                <mxCell id="81" style="edgeStyle=none;html=1;fontColor=#fff;entryX=0.5;entryY=0;entryDx=0;entryDy=0;" edge="1" parent="1" source="25" target="78">
                    <mxGeometry relative="1" as="geometry">
                        <mxPoint x="730" y="1120" as="targetPoint"/>
                        <Array as="points">
                            <mxPoint x="730" y="1120"/>
                        </Array>
                    </mxGeometry>
                </mxCell>
                <mxCell id="25" value="&lt;font color=&quot;#ce9178&quot;&gt;Horoscope : Pisces&amp;nbsp;&lt;/font&gt;" style="shape=document;whiteSpace=wrap;html=1;boundedLbl=1;" vertex="1" parent="1">
                    <mxGeometry x="450" y="1070.16" width="175" height="100" as="geometry"/>
                </mxCell>
                <mxCell id="26" value="" style="edgeStyle=none;html=1;entryX=0.499;entryY=0.008;entryDx=0;entryDy=0;entryPerimeter=0;exitX=0.498;exitY=1.009;exitDx=0;exitDy=0;exitPerimeter=0;" edge="1" parent="1" target="28" source="23">
                    <mxGeometry relative="1" as="geometry">
                        <mxPoint x="159.80895915678525" y="1250.0018972332014" as="sourcePoint"/>
                        <mxPoint x="160" y="1410.1599999999999" as="targetPoint"/>
                    </mxGeometry>
                </mxCell>
                <mxCell id="27" value="No" style="edgeLabel;html=1;align=center;verticalAlign=middle;resizable=0;points=[];" vertex="1" connectable="0" parent="26">
                    <mxGeometry x="-0.3479" y="-1" relative="1" as="geometry">
                        <mxPoint x="1" as="offset"/>
                    </mxGeometry>
                </mxCell>
                <mxCell id="28" value="( month == 3 &amp;amp;&amp;amp; day &amp;gt;= 21 &amp;amp;&amp;amp; day &amp;lt;= 31 )&amp;nbsp;&lt;br&gt;|| ( month == 4 &amp;amp;&amp;amp; day &amp;lt;= 19 &amp;amp;&amp;amp; day &amp;gt;0)" style="rhombus;whiteSpace=wrap;html=1;" vertex="1" parent="1">
                    <mxGeometry x="15" y="1310.1599999999999" width="290" height="240" as="geometry"/>
                </mxCell>
                <mxCell id="29" value="Yes" style="edgeStyle=none;html=1;exitX=1;exitY=0.5;exitDx=0;exitDy=0;" edge="1" parent="1" source="28" target="30">
                    <mxGeometry relative="1" as="geometry">
                        <mxPoint x="310" y="1430.1599999999999" as="sourcePoint"/>
                    </mxGeometry>
                </mxCell>
                <mxCell id="85" style="edgeStyle=none;html=1;entryX=0.5;entryY=0;entryDx=0;entryDy=0;fontColor=#fff;" edge="1" parent="1" source="30" target="78">
                    <mxGeometry relative="1" as="geometry">
                        <Array as="points">
                            <mxPoint x="730" y="1430"/>
                        </Array>
                    </mxGeometry>
                </mxCell>
                <mxCell id="30" value="&lt;font color=&quot;#ce9178&quot;&gt;Horoscope : Aries&amp;nbsp;&lt;/font&gt;" style="shape=document;whiteSpace=wrap;html=1;boundedLbl=1;" vertex="1" parent="1">
                    <mxGeometry x="450" y="1380.1599999999999" width="175" height="100" as="geometry"/>
                </mxCell>
                <mxCell id="31" value="" style="edgeStyle=none;html=1;entryX=0.499;entryY=0.008;entryDx=0;entryDy=0;entryPerimeter=0;exitX=0.5;exitY=1.005;exitDx=0;exitDy=0;exitPerimeter=0;" edge="1" parent="1" target="33" source="28">
                    <mxGeometry relative="1" as="geometry">
                        <mxPoint x="159.81895915678524" y="1560.0018972332014" as="sourcePoint"/>
                        <mxPoint x="160.01" y="1720.1599999999999" as="targetPoint"/>
                    </mxGeometry>
                </mxCell>
                <mxCell id="32" value="No" style="edgeLabel;html=1;align=center;verticalAlign=middle;resizable=0;points=[];" vertex="1" connectable="0" parent="31">
                    <mxGeometry x="-0.3479" y="-1" relative="1" as="geometry">
                        <mxPoint x="1" as="offset"/>
                    </mxGeometry>
                </mxCell>
                <mxCell id="33" value="( month == 4 &amp;amp;&amp;amp; day &amp;gt;= 20 &amp;amp;&amp;amp; day &amp;lt;= 30 )&amp;nbsp;&lt;br&gt;|| ( month == 5 &amp;amp;&amp;amp; day &amp;lt;= 20 &amp;amp;&amp;amp; day &amp;gt;0)" style="rhombus;whiteSpace=wrap;html=1;" vertex="1" parent="1">
                    <mxGeometry x="15.010000000000002" y="1620.1599999999999" width="290" height="240" as="geometry"/>
                </mxCell>
                <mxCell id="34" value="Yes" style="edgeStyle=none;html=1;exitX=1;exitY=0.5;exitDx=0;exitDy=0;" edge="1" parent="1" source="33" target="35">
                    <mxGeometry relative="1" as="geometry">
                        <mxPoint x="310.01" y="1740.1599999999999" as="sourcePoint"/>
                    </mxGeometry>
                </mxCell>
                <mxCell id="84" style="edgeStyle=none;html=1;entryX=0.5;entryY=0;entryDx=0;entryDy=0;fontColor=#fff;" edge="1" parent="1" source="35" target="78">
                    <mxGeometry relative="1" as="geometry">
                        <Array as="points">
                            <mxPoint x="740" y="1740"/>
                        </Array>
                    </mxGeometry>
                </mxCell>
                <mxCell id="35" value="&lt;font color=&quot;#ce9178&quot;&gt;Horoscope : Taurus&lt;/font&gt;" style="shape=document;whiteSpace=wrap;html=1;boundedLbl=1;" vertex="1" parent="1">
                    <mxGeometry x="450.01" y="1690.1599999999999" width="175" height="100" as="geometry"/>
                </mxCell>
                <mxCell id="36" value="" style="edgeStyle=none;html=1;entryX=0.499;entryY=0.008;entryDx=0;entryDy=0;entryPerimeter=0;exitX=0.501;exitY=1.005;exitDx=0;exitDy=0;exitPerimeter=0;" edge="1" parent="1" target="38" source="33">
                    <mxGeometry relative="1" as="geometry">
                        <mxPoint x="159.81895915678524" y="1870.0018972332016" as="sourcePoint"/>
                        <mxPoint x="160.01" y="2030.16" as="targetPoint"/>
                    </mxGeometry>
                </mxCell>
                <mxCell id="37" value="No" style="edgeLabel;html=1;align=center;verticalAlign=middle;resizable=0;points=[];" vertex="1" connectable="0" parent="36">
                    <mxGeometry x="-0.3479" y="-1" relative="1" as="geometry">
                        <mxPoint x="1" as="offset"/>
                    </mxGeometry>
                </mxCell>
                <mxCell id="38" value="( month == 5 &amp;amp;&amp;amp; day &amp;gt;= 21 &amp;amp;&amp;amp; day &amp;lt;= 31 )&amp;nbsp;&lt;br&gt;|| ( month == 6 &amp;amp;&amp;amp; day &amp;lt;= 20 &amp;amp;&amp;amp; day &amp;gt;0)" style="rhombus;whiteSpace=wrap;html=1;" vertex="1" parent="1">
                    <mxGeometry x="15.009999999999998" y="1930.16" width="290" height="240" as="geometry"/>
                </mxCell>
                <mxCell id="39" value="Yes" style="edgeStyle=none;html=1;exitX=1;exitY=0.5;exitDx=0;exitDy=0;" edge="1" parent="1" source="38" target="40">
                    <mxGeometry relative="1" as="geometry">
                        <mxPoint x="310.01" y="2050.16" as="sourcePoint"/>
                    </mxGeometry>
                </mxCell>
                <mxCell id="83" style="edgeStyle=none;html=1;entryX=0.5;entryY=0;entryDx=0;entryDy=0;fontColor=#fff;" edge="1" parent="1" source="40" target="78">
                    <mxGeometry relative="1" as="geometry">
                        <Array as="points">
                            <mxPoint x="740" y="2050"/>
                        </Array>
                    </mxGeometry>
                </mxCell>
                <mxCell id="40" value="&lt;font color=&quot;#ce9178&quot;&gt;Horoscope : Gemini&lt;/font&gt;" style="shape=document;whiteSpace=wrap;html=1;boundedLbl=1;" vertex="1" parent="1">
                    <mxGeometry x="450.01" y="2000.16" width="175" height="100" as="geometry"/>
                </mxCell>
                <mxCell id="41" value="" style="edgeStyle=none;html=1;entryX=0.499;entryY=0.008;entryDx=0;entryDy=0;entryPerimeter=0;exitX=0.5;exitY=1.005;exitDx=0;exitDy=0;exitPerimeter=0;" edge="1" parent="1" target="43" source="38">
                    <mxGeometry relative="1" as="geometry">
                        <mxPoint x="159.81895915678524" y="2180.001897233202" as="sourcePoint"/>
                        <mxPoint x="160.01" y="2340.16" as="targetPoint"/>
                    </mxGeometry>
                </mxCell>
                <mxCell id="42" value="No" style="edgeLabel;html=1;align=center;verticalAlign=middle;resizable=0;points=[];" vertex="1" connectable="0" parent="41">
                    <mxGeometry x="-0.3479" y="-1" relative="1" as="geometry">
                        <mxPoint x="1" as="offset"/>
                    </mxGeometry>
                </mxCell>
                <mxCell id="43" value="( month == 6 &amp;amp;&amp;amp; day &amp;gt;= 21 &amp;amp;&amp;amp; day &amp;lt;= 30 )&amp;nbsp;&lt;br&gt;|| ( month == 7 &amp;amp;&amp;amp; day &amp;lt;= 22 &amp;amp;&amp;amp; day &amp;gt;0)" style="rhombus;whiteSpace=wrap;html=1;" vertex="1" parent="1">
                    <mxGeometry x="15.009999999999998" y="2240.16" width="290" height="240" as="geometry"/>
                </mxCell>
                <mxCell id="44" value="Yes" style="edgeStyle=none;html=1;exitX=1;exitY=0.5;exitDx=0;exitDy=0;" edge="1" parent="1" source="43" target="45">
                    <mxGeometry relative="1" as="geometry">
                        <mxPoint x="310.01" y="2360.16" as="sourcePoint"/>
                    </mxGeometry>
                </mxCell>
                <mxCell id="82" style="edgeStyle=none;html=1;entryX=0.5;entryY=0;entryDx=0;entryDy=0;fontColor=#fff;" edge="1" parent="1" source="45" target="78">
                    <mxGeometry relative="1" as="geometry">
                        <Array as="points">
                            <mxPoint x="740" y="2360"/>
                        </Array>
                    </mxGeometry>
                </mxCell>
                <mxCell id="45" value="&lt;font color=&quot;#ce9178&quot;&gt;Horoscope : Cancer&amp;nbsp;&lt;/font&gt;" style="shape=document;whiteSpace=wrap;html=1;boundedLbl=1;" vertex="1" parent="1">
                    <mxGeometry x="450.01" y="2310.16" width="175" height="100" as="geometry"/>
                </mxCell>
                <mxCell id="46" value="" style="edgeStyle=none;html=1;entryX=0.499;entryY=0.008;entryDx=0;entryDy=0;entryPerimeter=0;exitX=0.499;exitY=1.008;exitDx=0;exitDy=0;exitPerimeter=0;" edge="1" parent="1" target="48" source="43">
                    <mxGeometry relative="1" as="geometry">
                        <mxPoint x="159.81895915678524" y="2490.001897233202" as="sourcePoint"/>
                        <mxPoint x="160.01" y="2650.16" as="targetPoint"/>
                    </mxGeometry>
                </mxCell>
                <mxCell id="47" value="No" style="edgeLabel;html=1;align=center;verticalAlign=middle;resizable=0;points=[];" vertex="1" connectable="0" parent="46">
                    <mxGeometry x="-0.3479" y="-1" relative="1" as="geometry">
                        <mxPoint x="1" as="offset"/>
                    </mxGeometry>
                </mxCell>
                <mxCell id="48" value="( month == 7 &amp;amp;&amp;amp; day &amp;gt;= 23 &amp;amp;&amp;amp; day &amp;lt;= 31 )&amp;nbsp;&lt;br&gt;|| ( month == 8 &amp;amp;&amp;amp; day &amp;lt;= 22 &amp;amp;&amp;amp; day &amp;gt;0)" style="rhombus;whiteSpace=wrap;html=1;" vertex="1" parent="1">
                    <mxGeometry x="15.009999999999998" y="2550.16" width="290" height="240" as="geometry"/>
                </mxCell>
                <mxCell id="49" value="Yes" style="edgeStyle=none;html=1;exitX=1;exitY=0.5;exitDx=0;exitDy=0;" edge="1" parent="1" source="48" target="50">
                    <mxGeometry relative="1" as="geometry">
                        <mxPoint x="310.01" y="2670.16" as="sourcePoint"/>
                    </mxGeometry>
                </mxCell>
                <mxCell id="86" style="edgeStyle=none;html=1;entryX=0.5;entryY=1;entryDx=0;entryDy=0;fontColor=#fff;" edge="1" parent="1" source="50" target="78">
                    <mxGeometry relative="1" as="geometry">
                        <Array as="points">
                            <mxPoint x="740" y="2670"/>
                        </Array>
                    </mxGeometry>
                </mxCell>
                <mxCell id="50" value="&lt;font color=&quot;#ce9178&quot;&gt;Horoscope : Leo&lt;/font&gt;" style="shape=document;whiteSpace=wrap;html=1;boundedLbl=1;" vertex="1" parent="1">
                    <mxGeometry x="450.01" y="2620.16" width="175" height="100" as="geometry"/>
                </mxCell>
                <mxCell id="51" value="" style="edgeStyle=none;html=1;entryX=0.499;entryY=0.008;entryDx=0;entryDy=0;entryPerimeter=0;exitX=0.5;exitY=1.008;exitDx=0;exitDy=0;exitPerimeter=0;" edge="1" parent="1" target="53" source="48">
                    <mxGeometry relative="1" as="geometry">
                        <mxPoint x="159.81895915678524" y="2800.0018972332014" as="sourcePoint"/>
                        <mxPoint x="160.01" y="2960.16" as="targetPoint"/>
                    </mxGeometry>
                </mxCell>
                <mxCell id="52" value="No" style="edgeLabel;html=1;align=center;verticalAlign=middle;resizable=0;points=[];" vertex="1" connectable="0" parent="51">
                    <mxGeometry x="-0.3479" y="-1" relative="1" as="geometry">
                        <mxPoint x="1" as="offset"/>
                    </mxGeometry>
                </mxCell>
                <mxCell id="53" value="( month == 8 &amp;amp;&amp;amp; day &amp;gt;= 23 &amp;amp;&amp;amp; day &amp;lt;= 31 )&amp;nbsp;&lt;br&gt;|| ( month == 9 &amp;amp;&amp;amp; day &amp;lt;= 22 &amp;amp;&amp;amp; day &amp;gt;0)" style="rhombus;whiteSpace=wrap;html=1;" vertex="1" parent="1">
                    <mxGeometry x="15.010000000000005" y="2860.16" width="290" height="240" as="geometry"/>
                </mxCell>
                <mxCell id="54" value="Yes" style="edgeStyle=none;html=1;exitX=1;exitY=0.5;exitDx=0;exitDy=0;" edge="1" parent="1" source="53" target="55">
                    <mxGeometry relative="1" as="geometry">
                        <mxPoint x="310.01" y="2980.16" as="sourcePoint"/>
                    </mxGeometry>
                </mxCell>
                <mxCell id="87" style="edgeStyle=none;html=1;fontColor=#fff;" edge="1" parent="1" source="55">
                    <mxGeometry relative="1" as="geometry">
                        <mxPoint x="740" y="2519.9999999999995" as="targetPoint"/>
                        <Array as="points">
                            <mxPoint x="740" y="2980"/>
                        </Array>
                    </mxGeometry>
                </mxCell>
                <mxCell id="55" value="&lt;font color=&quot;#ce9178&quot;&gt;Horoscope : Virgo&lt;/font&gt;" style="shape=document;whiteSpace=wrap;html=1;boundedLbl=1;" vertex="1" parent="1">
                    <mxGeometry x="450.01" y="2930.16" width="175" height="100" as="geometry"/>
                </mxCell>
                <mxCell id="56" value="" style="edgeStyle=none;html=1;entryX=0.499;entryY=0.008;entryDx=0;entryDy=0;entryPerimeter=0;exitX=0.5;exitY=1.008;exitDx=0;exitDy=0;exitPerimeter=0;" edge="1" target="58" parent="1">
                    <mxGeometry relative="1" as="geometry">
                        <mxPoint x="160.0100000000001" y="2792.08" as="sourcePoint"/>
                        <mxPoint x="160.01" y="2960.16" as="targetPoint"/>
                    </mxGeometry>
                </mxCell>
                <mxCell id="57" value="No" style="edgeLabel;html=1;align=center;verticalAlign=middle;resizable=0;points=[];" vertex="1" connectable="0" parent="56">
                    <mxGeometry x="-0.3479" y="-1" relative="1" as="geometry">
                        <mxPoint x="1" as="offset"/>
                    </mxGeometry>
                </mxCell>
                <mxCell id="58" value="( month == 8 &amp;amp;&amp;amp; day &amp;gt;= 23 &amp;amp;&amp;amp; day &amp;lt;= 31 )&amp;nbsp;&lt;br&gt;|| ( month == 9 &amp;amp;&amp;amp; day &amp;lt;= 22 &amp;amp;&amp;amp; day &amp;gt;0)" style="rhombus;whiteSpace=wrap;html=1;" vertex="1" parent="1">
                    <mxGeometry x="15.010000000000005" y="2860.16" width="290" height="240" as="geometry"/>
                </mxCell>
                <mxCell id="59" value="Yes" style="edgeStyle=none;html=1;exitX=1;exitY=0.5;exitDx=0;exitDy=0;" edge="1" source="58" parent="1">
                    <mxGeometry relative="1" as="geometry">
                        <mxPoint x="310.01" y="2980.16" as="sourcePoint"/>
                        <mxPoint x="450.01" y="2980.16" as="targetPoint"/>
                    </mxGeometry>
                </mxCell>
                <mxCell id="88" style="edgeStyle=none;html=1;entryX=0.5;entryY=1;entryDx=0;entryDy=0;fontColor=#fff;" edge="1" parent="1" source="60" target="78">
                    <mxGeometry relative="1" as="geometry">
                        <Array as="points">
                            <mxPoint x="740" y="3298"/>
                        </Array>
                    </mxGeometry>
                </mxCell>
                <mxCell id="60" value="&lt;font color=&quot;#ce9178&quot;&gt;Horoscope : Libra&lt;/font&gt;" style="shape=document;whiteSpace=wrap;html=1;boundedLbl=1;" vertex="1" parent="1">
                    <mxGeometry x="450" y="3248.08" width="175" height="100" as="geometry"/>
                </mxCell>
                <mxCell id="61" value="" style="edgeStyle=none;html=1;entryX=0.499;entryY=0.008;entryDx=0;entryDy=0;entryPerimeter=0;exitX=0.498;exitY=1.012;exitDx=0;exitDy=0;exitPerimeter=0;" edge="1" parent="1" target="63" source="58">
                    <mxGeometry relative="1" as="geometry">
                        <mxPoint x="160.0000000000001" y="3110" as="sourcePoint"/>
                        <mxPoint x="160" y="3278.08" as="targetPoint"/>
                    </mxGeometry>
                </mxCell>
                <mxCell id="62" value="No" style="edgeLabel;html=1;align=center;verticalAlign=middle;resizable=0;points=[];" vertex="1" connectable="0" parent="61">
                    <mxGeometry x="-0.3479" y="-1" relative="1" as="geometry">
                        <mxPoint x="1" as="offset"/>
                    </mxGeometry>
                </mxCell>
                <mxCell id="63" value="( month == 9 &amp;amp;&amp;amp; day &amp;gt;= 23 &amp;amp;&amp;amp; day &amp;lt;= 30 )&amp;nbsp;&lt;br&gt;|| ( month == 10 &amp;amp;&amp;amp; day &amp;lt;= 22 &amp;amp;&amp;amp; day &amp;gt;0)" style="rhombus;whiteSpace=wrap;html=1;" vertex="1" parent="1">
                    <mxGeometry x="15.000000000000005" y="3178.08" width="290" height="240" as="geometry"/>
                </mxCell>
                <mxCell id="64" value="Yes" style="edgeStyle=none;html=1;exitX=1;exitY=0.5;exitDx=0;exitDy=0;" edge="1" parent="1" source="63">
                    <mxGeometry relative="1" as="geometry">
                        <mxPoint x="310" y="3298.08" as="sourcePoint"/>
                        <mxPoint x="450" y="3298.08" as="targetPoint"/>
                    </mxGeometry>
                </mxCell>
                <mxCell id="89" style="edgeStyle=none;html=1;entryX=0.5;entryY=1;entryDx=0;entryDy=0;fontColor=#fff;" edge="1" parent="1" source="65" target="78">
                    <mxGeometry relative="1" as="geometry">
                        <Array as="points">
                            <mxPoint x="740" y="3618"/>
                        </Array>
                    </mxGeometry>
                </mxCell>
                <mxCell id="65" value="&lt;font color=&quot;#ce9178&quot;&gt;Horoscope : Scorpio&lt;/font&gt;" style="shape=document;whiteSpace=wrap;html=1;boundedLbl=1;" vertex="1" parent="1">
                    <mxGeometry x="450" y="3568.08" width="175" height="100" as="geometry"/>
                </mxCell>
                <mxCell id="66" value="" style="edgeStyle=none;html=1;entryX=0.499;entryY=0.008;entryDx=0;entryDy=0;entryPerimeter=0;exitX=0.5;exitY=1.005;exitDx=0;exitDy=0;exitPerimeter=0;" edge="1" parent="1" target="68" source="63">
                    <mxGeometry relative="1" as="geometry">
                        <mxPoint x="160.0000000000001" y="3430" as="sourcePoint"/>
                        <mxPoint x="160" y="3598.08" as="targetPoint"/>
                    </mxGeometry>
                </mxCell>
                <mxCell id="67" value="No" style="edgeLabel;html=1;align=center;verticalAlign=middle;resizable=0;points=[];" vertex="1" connectable="0" parent="66">
                    <mxGeometry x="-0.3479" y="-1" relative="1" as="geometry">
                        <mxPoint x="1" as="offset"/>
                    </mxGeometry>
                </mxCell>
                <mxCell id="68" value="( month == 10 &amp;amp;&amp;amp; day &amp;gt;= 23 &amp;amp;&amp;amp; day &amp;lt;= 31 )&amp;nbsp;&lt;br&gt;|| ( month == 11 &amp;amp;&amp;amp; day &amp;lt;= 21 &amp;amp;&amp;amp; day &amp;gt;0)" style="rhombus;whiteSpace=wrap;html=1;" vertex="1" parent="1">
                    <mxGeometry x="15.000000000000004" y="3498.08" width="290" height="240" as="geometry"/>
                </mxCell>
                <mxCell id="69" value="Yes" style="edgeStyle=none;html=1;exitX=1;exitY=0.5;exitDx=0;exitDy=0;" edge="1" parent="1" source="68">
                    <mxGeometry relative="1" as="geometry">
                        <mxPoint x="310" y="3618.08" as="sourcePoint"/>
                        <mxPoint x="450" y="3618.08" as="targetPoint"/>
                    </mxGeometry>
                </mxCell>
                <mxCell id="90" style="edgeStyle=none;html=1;entryX=0.5;entryY=1;entryDx=0;entryDy=0;fontColor=#fff;" edge="1" parent="1" source="70" target="78">
                    <mxGeometry relative="1" as="geometry">
                        <Array as="points">
                            <mxPoint x="740" y="3938"/>
                        </Array>
                    </mxGeometry>
                </mxCell>
                <mxCell id="70" value="&lt;font color=&quot;#ce9178&quot;&gt;Horoscope : Sagittarius&lt;/font&gt;" style="shape=document;whiteSpace=wrap;html=1;boundedLbl=1;" vertex="1" parent="1">
                    <mxGeometry x="450" y="3888.08" width="175" height="100" as="geometry"/>
                </mxCell>
                <mxCell id="71" value="" style="edgeStyle=none;html=1;entryX=0.499;entryY=0.008;entryDx=0;entryDy=0;entryPerimeter=0;exitX=0.499;exitY=0.996;exitDx=0;exitDy=0;exitPerimeter=0;" edge="1" parent="1" target="73" source="68">
                    <mxGeometry relative="1" as="geometry">
                        <mxPoint x="160.0000000000001" y="3750" as="sourcePoint"/>
                        <mxPoint x="160" y="3918.08" as="targetPoint"/>
                    </mxGeometry>
                </mxCell>
                <mxCell id="72" value="No" style="edgeLabel;html=1;align=center;verticalAlign=middle;resizable=0;points=[];" vertex="1" connectable="0" parent="71">
                    <mxGeometry x="-0.3479" y="-1" relative="1" as="geometry">
                        <mxPoint x="1" as="offset"/>
                    </mxGeometry>
                </mxCell>
                <mxCell id="76" value="" style="edgeStyle=none;html=1;" edge="1" parent="1" source="73" target="75">
                    <mxGeometry relative="1" as="geometry">
                        <Array as="points">
                            <mxPoint x="160" y="4200"/>
                            <mxPoint x="280" y="4200"/>
                        </Array>
                    </mxGeometry>
                </mxCell>
                <mxCell id="77" value="&lt;font color=&quot;#ffffff&quot;&gt;No&lt;/font&gt;" style="edgeLabel;html=1;align=center;verticalAlign=middle;resizable=0;points=[];fontColor=#CE9178;" vertex="1" connectable="0" parent="76">
                    <mxGeometry x="-0.1232" y="-2" relative="1" as="geometry">
                        <mxPoint y="-2" as="offset"/>
                    </mxGeometry>
                </mxCell>
                <mxCell id="73" value="( month == 11 &amp;amp;&amp;amp; day &amp;gt;= 22 &amp;amp;&amp;amp; day &amp;lt;= 30 )&amp;nbsp;&lt;br&gt;|| ( month == 12 &amp;amp;&amp;amp; day &amp;lt;= 21 &amp;amp;&amp;amp; day &amp;gt;0)" style="rhombus;whiteSpace=wrap;html=1;" vertex="1" parent="1">
                    <mxGeometry x="15.000000000000004" y="3818.08" width="290" height="240" as="geometry"/>
                </mxCell>
                <mxCell id="74" value="Yes" style="edgeStyle=none;html=1;exitX=1;exitY=0.5;exitDx=0;exitDy=0;" edge="1" parent="1" source="73">
                    <mxGeometry relative="1" as="geometry">
                        <mxPoint x="310" y="3938.08" as="sourcePoint"/>
                        <mxPoint x="450" y="3938.08" as="targetPoint"/>
                    </mxGeometry>
                </mxCell>
                <mxCell id="91" style="edgeStyle=none;html=1;entryX=0.5;entryY=1;entryDx=0;entryDy=0;fontColor=#fff;" edge="1" parent="1" source="75" target="78">
                    <mxGeometry relative="1" as="geometry">
                        <Array as="points">
                            <mxPoint x="740" y="4200"/>
                        </Array>
                    </mxGeometry>
                </mxCell>
                <mxCell id="75" value="&lt;font color=&quot;#ce9178&quot;&gt;You entered wrong.&amp;nbsp;&lt;br&gt;&lt;br&gt;please check . .&lt;/font&gt;" style="shape=document;whiteSpace=wrap;html=1;boundedLbl=1;" vertex="1" parent="1">
                    <mxGeometry x="450.01" y="4140" width="179.99" height="120" as="geometry"/>
                </mxCell>
                <mxCell id="78" value="End" style="ellipse;whiteSpace=wrap;html=1;aspect=fixed;fontColor=#fff;" vertex="1" parent="1">
                    <mxGeometry x="700" y="2440" width="80" height="80" as="geometry"/>
                </mxCell>
            </root>
        </mxGraphModel>
    </diagram>
</mxfile>